<svg width="74" height="23" viewBox="0 0 74 23" fill="none" xmlns="http://www.w3.org/2000/svg">
<path d="M48.509 4.73089H73.5359V0.0915527H48.509C43.1328 0.0915527 39.5209 3.13987 39.5209 7.67824C39.521 7.98447 39.5385 8.29051 39.5734 8.59519C38.3561 3.56287 33.4279 0.107927 26.9549 0.0915527H12.9769C5.45649 0.0915527 0 4.73089 0 11.0895C0 17.4481 5.45649 22.0875 12.9769 22.0875H26.9611C31.398 22.0711 35.1118 20.4501 37.4013 17.7947V22.0875H73.8448V16.3565C73.8448 14.8366 73.1612 13.3789 71.9444 12.3041C70.7276 11.2294 69.0772 10.6256 67.3564 10.6256H48.509C45.4192 10.6256 44.7735 9.02092 44.7735 7.67824C44.7735 6.33556 45.4192 4.73089 48.509 4.73089ZM26.9518 17.4481H12.9769C8.35775 17.4481 5.25256 14.891 5.25256 11.0895C5.25256 7.28799 8.35775 4.73089 12.9769 4.73089H26.9456C31.5401 4.74454 34.6267 7.2989 34.6267 11.0895C34.6267 14.8801 31.5401 17.4318 26.9518 17.4481ZM48.5182 15.2649H67.3656C67.6934 15.2649 68.0078 15.3799 68.2396 15.5846C68.4713 15.7894 68.6015 16.067 68.6015 16.3565V17.4481H37.6949C39.1513 15.5794 39.9166 13.3581 39.8855 11.0895C39.885 10.618 39.853 10.1468 39.7897 9.67861C40.695 13.0899 43.9763 15.2649 48.509 15.2649H48.5182Z" fill="#a2a2a2"/>
</svg>
